<?xml version="1.0" encoding="UTF-8"?>
<svg id="Layer_1" xmlns="http://www.w3.org/2000/svg" version="1.1" viewBox="0 0 900 700">
  <!-- Generator: Adobe Illustrator 29.2.1, SVG Export Plug-In . SVG Version: 2.1.0 Build 116)  -->
  <defs>
    <style>
      .st0 {
        fill: none;
        stroke: #000;
        stroke-miterlimit: 10;
        stroke-width: 18px;
      }
    </style>
  </defs>
  <circle cx="312.4" cy="250.5" r="31.4"/>
  <circle cx="543.3" cy="250.5" r="31.4"/>
  <circle class="st0" cx="428.4" cy="314.9" r="238.7"/>
  <path d="M335.2,463.3c-4.3-24.1,15.1-45.2,34.8-55.9,32.5-17.7,73.4-19.1,107.6-5.4,20.1,8.3,39.9,23.4,45.5,45.3,1.3,5.3,1.5,10.9.5,16-1.1-5.1-2.9-9.9-5.3-14.1-9.9-16.8-28.2-26.3-46.2-31.8-32.1-9.2-67.9-8.2-98.9,4.9-17.6,7.7-34.3,21.2-38.1,41h0Z"/>
</svg>